<svg width="106" height="106" viewBox="0 0 106 106" fill="none" xmlns="http://www.w3.org/2000/svg">
<circle cx="53" cy="53" r="53" fill="#16222E"/>
<path d="M19.5781 73V33H36.9219C39.9687 33 42.5273 33.4102 44.5977 34.2305C46.681 35.0508 48.25 36.2096 49.3047 37.707C50.3724 39.2044 50.9063 40.9687 50.9063 43C50.9063 44.4714 50.5807 45.8125 49.9297 47.0234C49.2917 48.2344 48.3932 49.25 47.2344 50.0703C46.0755 50.8776 44.7214 51.4375 43.1719 51.75V52.1406C44.8906 52.2057 46.4531 52.6419 47.8594 53.4492C49.2656 54.2435 50.3854 55.3437 51.2188 56.75C52.0521 58.1432 52.4688 59.7839 52.4688 61.6719C52.4688 63.8594 51.8958 65.806 50.75 67.5117C49.6172 69.2174 48.0026 70.5586 45.9063 71.5352C43.8099 72.5117 41.3099 73 38.4063 73H19.5781ZM30.4375 64.3281H35.5156C37.3385 64.3281 38.7057 63.9896 39.6172 63.3125C40.5286 62.6224 40.9844 61.6068 40.9844 60.2656C40.9844 59.3281 40.7695 58.5339 40.3398 57.8828C39.9102 57.2318 39.2982 56.737 38.5039 56.3984C37.7227 56.0599 36.7786 55.8906 35.6719 55.8906H30.4375V64.3281ZM30.4375 49.1719H34.8906C35.8411 49.1719 36.681 49.0221 37.4102 48.7227C38.1393 48.4232 38.7057 47.9935 39.1094 47.4336C39.526 46.8607 39.7344 46.1641 39.7344 45.3437C39.7344 44.1068 39.2917 43.1628 38.4063 42.5117C37.5208 41.8477 36.401 41.5156 35.0469 41.5156H30.4375V49.1719ZM62.4395 70.583C62.2637 72.3408 61.2969 73.293 59.5391 73.4395C58.7188 73.4395 58.001 73.1758 57.3857 72.6484C56.7998 72.0918 56.5068 71.4033 56.5068 70.583V49.8408C56.5361 49.0205 56.8438 48.3467 57.4297 47.8193C58.0156 47.2627 58.7188 46.9844 59.5391 46.9844H77.9961C80.5742 47.0723 82.5225 47.6436 83.8408 48.6982C85.1592 49.7236 86.1113 50.8955 86.6973 52.2139C87.2832 53.5322 87.5762 54.8652 87.5762 56.2129C87.5762 57.6191 87.2832 58.9814 86.6973 60.2998C86.1406 61.6182 85.1885 62.8047 83.8408 63.8594C82.5225 64.8848 80.8379 65.3828 78.7871 65.3535H67.7129C66.8926 65.3535 66.2041 65.0605 65.6475 64.4746C65.0615 63.918 64.7686 63.2295 64.7686 62.4092C64.7686 61.5889 65.0469 60.9004 65.6035 60.3438C66.1895 59.7578 66.8926 59.4648 67.7129 59.4648H79.0508C79.6074 59.4648 80.0615 59.2891 80.4131 58.9375C80.7939 58.5566 81.0723 58.1318 81.248 57.6631C81.4238 57.165 81.5117 56.667 81.5117 56.1689C81.5117 55.7002 81.4238 55.2314 81.248 54.7627C81.0723 54.2646 80.7939 53.8398 80.4131 53.4883C80.0615 53.1074 79.6074 52.9023 79.0508 52.873H63.582C62.8203 52.9023 62.4395 53.2832 62.4395 54.0156V70.583Z" fill="white"/>
</svg>
