<svg width="73" height="41" viewBox="0 0 73 41" fill="none" xmlns="http://www.w3.org/2000/svg">
<path d="M2.57812 40V-1.19209e-06H19.9219C22.9687 -1.19209e-06 25.5273 0.410156 27.5977 1.23047C29.681 2.05078 31.25 3.20963 32.3047 4.70703C33.3724 6.20443 33.9063 7.96875 33.9063 10C33.9063 11.4714 33.5807 12.8125 32.9297 14.0234C32.2917 15.2344 31.3932 16.25 30.2344 17.0703C29.0755 17.8776 27.7214 18.4375 26.1719 18.75V19.1406C27.8906 19.2057 29.4531 19.6419 30.8594 20.4492C32.2656 21.2435 33.3854 22.3437 34.2188 23.75C35.0521 25.1432 35.4688 26.7839 35.4688 28.6719C35.4688 30.8594 34.8958 32.806 33.75 34.5117C32.6172 36.2174 31.0026 37.5586 28.9063 38.5352C26.8099 39.5117 24.3099 40 21.4063 40H2.57812ZM13.4375 31.3281H18.5156C20.3385 31.3281 21.7057 30.9896 22.6172 30.3125C23.5286 29.6224 23.9844 28.6068 23.9844 27.2656C23.9844 26.3281 23.7695 25.5339 23.3398 24.8828C22.9102 24.2318 22.2982 23.737 21.5039 23.3984C20.7227 23.0599 19.7786 22.8906 18.6719 22.8906H13.4375V31.3281ZM13.4375 16.1719H17.8906C18.8411 16.1719 19.681 16.0221 20.4102 15.7227C21.1393 15.4232 21.7057 14.9935 22.1094 14.4336C22.526 13.8607 22.7344 13.1641 22.7344 12.3437C22.7344 11.1068 22.2917 10.1628 21.4063 9.51172C20.5208 8.84766 19.401 8.51562 18.0469 8.51562H13.4375V16.1719ZM45.4395 37.583C45.2637 39.3408 44.2969 40.293 42.5391 40.4395C41.7188 40.4395 41.001 40.1758 40.3857 39.6484C39.7998 39.0918 39.5068 38.4033 39.5068 37.583V16.8408C39.5361 16.0205 39.8438 15.3467 40.4297 14.8193C41.0156 14.2627 41.7188 13.9844 42.5391 13.9844H60.9961C63.5742 14.0723 65.5225 14.6436 66.8408 15.6982C68.1592 16.7236 69.1113 17.8955 69.6973 19.2139C70.2832 20.5322 70.5762 21.8652 70.5762 23.2129C70.5762 24.6191 70.2832 25.9814 69.6973 27.2998C69.1406 28.6182 68.1885 29.8047 66.8408 30.8594C65.5225 31.8848 63.8379 32.3828 61.7871 32.3535H50.7129C49.8926 32.3535 49.2041 32.0605 48.6475 31.4746C48.0615 30.918 47.7686 30.2295 47.7686 29.4092C47.7686 28.5889 48.0469 27.9004 48.6035 27.3438C49.1895 26.7578 49.8926 26.4648 50.7129 26.4648H62.0508C62.6074 26.4648 63.0615 26.2891 63.4131 25.9375C63.7939 25.5566 64.0723 25.1318 64.248 24.6631C64.4238 24.165 64.5117 23.667 64.5117 23.1689C64.5117 22.7002 64.4238 22.2314 64.248 21.7627C64.0723 21.2646 63.7939 20.8398 63.4131 20.4883C63.0615 20.1074 62.6074 19.9023 62.0508 19.873H46.582C45.8203 19.9023 45.4395 20.2832 45.4395 21.0156V37.583Z" fill="white"/>
</svg>
